<svg xmlns="http://www.w3.org/2000/svg" xmlns:xlink="http://www.w3.org/1999/xlink" width="16" height="16" viewBox="0 0 16 16">
  <defs>
    <clipPath id="clip-iban-icon-mask">
      <rect width="16" height="16"/>
    </clipPath>
  </defs>
  <g id="iban-icon-mask" clip-path="url(#clip-iban-icon-mask)">
    <path d="M1689.647-635.251a2.31,2.31,0,0,1-1.069-.259,2.381,2.381,0,0,1-.813-.691,2.369,2.369,0,0,0,.47-1.425,2.37,2.37,0,0,0-.47-1.425,2.382,2.382,0,0,1,.813-.691,2.312,2.312,0,0,1,1.069-.258,2.326,2.326,0,0,1,1.664.7,2.37,2.37,0,0,1,.689,1.679,2.371,2.371,0,0,1-.689,1.68A2.327,2.327,0,0,1,1689.647-635.251Zm-.542-2.863h.006l1,1.642h.658v-2.306h-.5v1.6h-.006l-.971-1.6h-.684v2.306h.5v-1.641Zm-3.223,2.863a2.31,2.31,0,0,1-1.069-.259,2.38,2.38,0,0,1-.813-.691,2.369,2.369,0,0,0,.471-1.425,2.37,2.37,0,0,0-.471-1.425,2.382,2.382,0,0,1,.813-.691,2.313,2.313,0,0,1,1.069-.258,2.312,2.312,0,0,1,1.069.258,2.382,2.382,0,0,1,.813.691,2.369,2.369,0,0,0-.47,1.425,2.369,2.369,0,0,0,.47,1.425,2.378,2.378,0,0,1-.813.691A2.31,2.31,0,0,1,1685.882-635.251Zm-.4-1.71h.887l.2.488h.568l-.994-2.306h-.416l-.987,2.306h.555l.19-.488Zm-3.364,1.71a2.31,2.31,0,0,1-1.069-.259,2.38,2.38,0,0,1-.813-.691,2.369,2.369,0,0,0,.471-1.425,2.37,2.37,0,0,0-.471-1.425,2.381,2.381,0,0,1,.813-.691,2.313,2.313,0,0,1,1.069-.258,2.312,2.312,0,0,1,1.069.258,2.381,2.381,0,0,1,.813.691,2.37,2.37,0,0,0-.471,1.425A2.37,2.37,0,0,0,1684-636.2a2.379,2.379,0,0,1-.813.691A2.31,2.31,0,0,1,1682.117-635.251Zm-.776-3.527v2.306h.936a1.468,1.468,0,0,0,.305-.033.879.879,0,0,0,.276-.107.618.618,0,0,0,.2-.2.562.562,0,0,0,.077-.3.608.608,0,0,0-.036-.208.516.516,0,0,0-.1-.171.551.551,0,0,0-.158-.121.651.651,0,0,0-.2-.064v-.006a.6.6,0,0,0,.286-.184.489.489,0,0,0,.108-.324.55.55,0,0,0-.074-.3.522.522,0,0,0-.194-.178.822.822,0,0,0-.27-.085,2.15,2.15,0,0,0-.3-.021Zm-2.989,3.527a2.328,2.328,0,0,1-1.664-.7,2.372,2.372,0,0,1-.689-1.68,2.371,2.371,0,0,1,.689-1.679,2.327,2.327,0,0,1,1.664-.7,2.312,2.312,0,0,1,1.069.258,2.381,2.381,0,0,1,.813.691,2.369,2.369,0,0,0-.471,1.425,2.369,2.369,0,0,0,.471,1.425,2.379,2.379,0,0,1-.813.691A2.31,2.31,0,0,1,1678.353-635.251Zm-.245-3.527v2.306h.5v-2.306Zm4.188,1.876h-.452v-.524h.381a.964.964,0,0,1,.132.01.522.522,0,0,1,.133.036.256.256,0,0,1,.1.076.207.207,0,0,1,.04.132.247.247,0,0,1-.031.127.259.259,0,0,1-.079.085.308.308,0,0,1-.108.045A.556.556,0,0,1,1682.3-636.9Zm3.9-.489h-.558l.277-.717.281.716Zm-3.988-.466h-.365v-.492h.342a.665.665,0,0,1,.119.011.379.379,0,0,1,.11.037.217.217,0,0,1,.079.073.214.214,0,0,1,.031.119.238.238,0,0,1-.027.117.222.222,0,0,1-.073.078.321.321,0,0,1-.1.042A.518.518,0,0,1,1682.209-637.857Z" transform="translate(-1676 645.501)" fill="currentColor"/>
  </g>
</svg>
