<svg id="iban" xmlns="http://www.w3.org/2000/svg" width="128" height="128" viewBox="0 0 128 128">
  <circle id="Ellipse_1" data-name="Ellipse 1" cx="64" cy="64" r="64" fill="#990080"/>
  <path id="Ausschluss_8" data-name="Ausschluss 8" d="M1777.5-605a17.314,17.314,0,0,1-7.95-1.905A17.663,17.663,0,0,1,1763.5-612a17.353,17.353,0,0,0,3.5-10.5,17.354,17.354,0,0,0-3.5-10.5,17.659,17.659,0,0,1,6.05-5.093A17.31,17.31,0,0,1,1777.5-640a17.382,17.382,0,0,1,12.374,5.126A17.382,17.382,0,0,1,1795-622.5a17.387,17.387,0,0,1-5.125,12.375A17.385,17.385,0,0,1,1777.5-605Zm-4.027-21.1h.048l7.416,12.1h4.9v-16.992h-3.744v11.808h-.048l-7.224-11.808h-5.088V-614h3.744v-12.1ZM1749.5-605a17.3,17.3,0,0,1-7.95-1.906A17.673,17.673,0,0,1,1735.5-612a17.354,17.354,0,0,0,3.5-10.5,17.355,17.355,0,0,0-3.5-10.5,17.666,17.666,0,0,1,6.051-5.092A17.315,17.315,0,0,1,1749.5-640a17.309,17.309,0,0,1,7.95,1.905A17.662,17.662,0,0,1,1763.5-633a17.349,17.349,0,0,0-3.5,10.5,17.35,17.35,0,0,0,3.5,10.5,17.662,17.662,0,0,1-6.051,5.094A17.309,17.309,0,0,1,1749.5-605Zm-2.98-12.6h6.6l1.464,3.6h4.224l-7.392-16.992h-3.1L1740.976-614h4.128l1.416-3.6ZM1721.5-605a17.3,17.3,0,0,1-7.95-1.906A17.673,17.673,0,0,1,1707.5-612a17.354,17.354,0,0,0,3.5-10.5,17.355,17.355,0,0,0-3.5-10.5,17.663,17.663,0,0,1,6.051-5.092A17.315,17.315,0,0,1,1721.5-640a17.315,17.315,0,0,1,7.95,1.905A17.661,17.661,0,0,1,1735.5-633a17.354,17.354,0,0,0-3.5,10.5,17.355,17.355,0,0,0,3.5,10.5,17.663,17.663,0,0,1-6.05,5.092A17.3,17.3,0,0,1,1721.5-605Zm-5.772-25.992V-614h6.96a11.027,11.027,0,0,0,2.268-.24,6.568,6.568,0,0,0,2.052-.792,4.561,4.561,0,0,0,1.488-1.452,4.1,4.1,0,0,0,.576-2.245,4.454,4.454,0,0,0-.264-1.535,3.809,3.809,0,0,0-.756-1.26,4.1,4.1,0,0,0-1.176-.888,4.863,4.863,0,0,0-1.524-.468v-.048a4.449,4.449,0,0,0,2.124-1.356,3.58,3.58,0,0,0,.8-2.388,4.027,4.027,0,0,0-.552-2.232,3.862,3.862,0,0,0-1.44-1.309,6.119,6.119,0,0,0-2-.624,16.164,16.164,0,0,0-2.22-.156ZM1693.5-605a17.389,17.389,0,0,1-12.375-5.126A17.389,17.389,0,0,1,1676-622.5a17.385,17.385,0,0,1,5.125-12.374A17.386,17.386,0,0,1,1693.5-640a17.315,17.315,0,0,1,7.95,1.905A17.664,17.664,0,0,1,1707.5-633a17.349,17.349,0,0,0-3.5,10.5,17.35,17.35,0,0,0,3.5,10.5,17.665,17.665,0,0,1-6.05,5.092A17.3,17.3,0,0,1,1693.5-605Zm-1.82-25.992V-614h3.743v-16.992Zm31.152,13.824h-3.36v-3.865h2.831a7.383,7.383,0,0,1,.984.072,3.923,3.923,0,0,1,.985.265,1.907,1.907,0,0,1,.756.563,1.509,1.509,0,0,1,.3.972,1.809,1.809,0,0,1-.228.936,1.921,1.921,0,0,1-.589.625,2.318,2.318,0,0,1-.8.336A4.163,4.163,0,0,1,1722.832-617.168Zm29.016-3.6H1747.7l2.064-5.28,2.088,5.279Zm-29.664-3.433h-2.712v-3.623h2.543a4.943,4.943,0,0,1,.888.084,2.817,2.817,0,0,1,.816.276,1.594,1.594,0,0,1,.588.54,1.57,1.57,0,0,1,.228.876,1.736,1.736,0,0,1-.2.864,1.643,1.643,0,0,1-.54.576,2.368,2.368,0,0,1-.756.312A3.848,3.848,0,0,1,1722.184-624.2Z" transform="translate(-1671 686)" fill="#fff"/>
</svg>
